<mxfile host="app.diagrams.net" modified="2024-03-18T15:37:49.207Z" agent="Mozilla/5.0 (Windows NT 10.0; Win64; x64) AppleWebKit/537.36 (KHTML, like Gecko) Chrome/122.0.0.0 Safari/537.36" etag="HNCNuzn20AO-xBy_RqRS" version="24.0.2" type="github">
  <diagram name="Page-1" id="Sp7X2wPLjLgkTUaoRmga">
    <mxGraphModel dx="1050" dy="530" grid="1" gridSize="10" guides="1" tooltips="1" connect="1" arrows="1" fold="1" page="1" pageScale="1" pageWidth="850" pageHeight="1100" math="0" shadow="0">
      <root>
        <mxCell id="0" />
        <mxCell id="1" parent="0" />
        <mxCell id="qJqK-in6u8nckECDjxhz-1" value="ART-OBJECT" style="rounded=0;whiteSpace=wrap;html=1;" parent="1" vertex="1">
          <mxGeometry x="452" y="262.6" width="90" height="30" as="geometry" />
        </mxCell>
        <mxCell id="qJqK-in6u8nckECDjxhz-3" value="&lt;u&gt;AID&lt;/u&gt;" style="ellipse;whiteSpace=wrap;html=1;" parent="1" vertex="1">
          <mxGeometry x="517" y="202.6" width="30" height="20" as="geometry" />
        </mxCell>
        <mxCell id="qJqK-in6u8nckECDjxhz-5" value="" style="endArrow=none;html=1;rounded=0;exitX=0.5;exitY=1;exitDx=0;exitDy=0;entryX=1;entryY=0;entryDx=0;entryDy=0;" parent="1" source="qJqK-in6u8nckECDjxhz-3" target="qJqK-in6u8nckECDjxhz-1" edge="1">
          <mxGeometry width="50" height="50" relative="1" as="geometry">
            <mxPoint x="427" y="332.6" as="sourcePoint" />
            <mxPoint x="477" y="282.6" as="targetPoint" />
          </mxGeometry>
        </mxCell>
        <mxCell id="qJqK-in6u8nckECDjxhz-9" value="Artist" style="ellipse;whiteSpace=wrap;html=1;" parent="1" vertex="1">
          <mxGeometry x="487" y="202.6" width="30" height="20" as="geometry" />
        </mxCell>
        <mxCell id="qJqK-in6u8nckECDjxhz-10" value="" style="endArrow=none;html=1;rounded=0;exitX=0.5;exitY=1;exitDx=0;exitDy=0;entryX=0.5;entryY=0;entryDx=0;entryDy=0;" parent="1" source="qJqK-in6u8nckECDjxhz-9" target="qJqK-in6u8nckECDjxhz-1" edge="1">
          <mxGeometry width="50" height="50" relative="1" as="geometry">
            <mxPoint x="427" y="355.6" as="sourcePoint" />
            <mxPoint x="452" y="285.6" as="targetPoint" />
          </mxGeometry>
        </mxCell>
        <mxCell id="qJqK-in6u8nckECDjxhz-11" value="Year" style="ellipse;whiteSpace=wrap;html=1;" parent="1" vertex="1">
          <mxGeometry x="377" y="222.6" width="30" height="20" as="geometry" />
        </mxCell>
        <mxCell id="qJqK-in6u8nckECDjxhz-12" value="" style="endArrow=none;html=1;rounded=0;exitX=1;exitY=0.5;exitDx=0;exitDy=0;entryX=0;entryY=0;entryDx=0;entryDy=0;" parent="1" source="qJqK-in6u8nckECDjxhz-11" target="qJqK-in6u8nckECDjxhz-1" edge="1">
          <mxGeometry width="50" height="50" relative="1" as="geometry">
            <mxPoint x="427" y="302.6" as="sourcePoint" />
            <mxPoint x="452" y="232.6" as="targetPoint" />
          </mxGeometry>
        </mxCell>
        <mxCell id="qJqK-in6u8nckECDjxhz-13" value="Title" style="ellipse;whiteSpace=wrap;html=1;" parent="1" vertex="1">
          <mxGeometry x="407" y="212.6" width="30" height="20" as="geometry" />
        </mxCell>
        <mxCell id="qJqK-in6u8nckECDjxhz-14" value="" style="endArrow=none;html=1;rounded=0;exitX=1;exitY=1;exitDx=0;exitDy=0;entryX=0;entryY=0;entryDx=0;entryDy=0;" parent="1" source="qJqK-in6u8nckECDjxhz-13" target="qJqK-in6u8nckECDjxhz-1" edge="1">
          <mxGeometry width="50" height="50" relative="1" as="geometry">
            <mxPoint x="465" y="292.6" as="sourcePoint" />
            <mxPoint x="490" y="252.6" as="targetPoint" />
          </mxGeometry>
        </mxCell>
        <mxCell id="qJqK-in6u8nckECDjxhz-15" value="Desc" style="ellipse;whiteSpace=wrap;html=1;" parent="1" vertex="1">
          <mxGeometry x="447" y="210.6" width="40" height="20" as="geometry" />
        </mxCell>
        <mxCell id="qJqK-in6u8nckECDjxhz-16" value="" style="endArrow=none;html=1;rounded=0;exitX=0.5;exitY=1;exitDx=0;exitDy=0;entryX=0.171;entryY=-0.08;entryDx=0;entryDy=0;entryPerimeter=0;" parent="1" edge="1">
          <mxGeometry width="50" height="50" relative="1" as="geometry">
            <mxPoint x="467" y="230.6" as="sourcePoint" />
            <mxPoint x="467.3900000000001" y="263.20000000000005" as="targetPoint" />
          </mxGeometry>
        </mxCell>
        <mxCell id="qJqK-in6u8nckECDjxhz-17" value="" style="endArrow=none;html=1;rounded=0;entryX=0.5;entryY=1;entryDx=0;entryDy=0;" parent="1" target="qJqK-in6u8nckECDjxhz-1" edge="1">
          <mxGeometry width="50" height="50" relative="1" as="geometry">
            <mxPoint x="497" y="332.6" as="sourcePoint" />
            <mxPoint x="462" y="295.6" as="targetPoint" />
          </mxGeometry>
        </mxCell>
        <mxCell id="qJqK-in6u8nckECDjxhz-18" value="d" style="ellipse;whiteSpace=wrap;html=1;" parent="1" vertex="1">
          <mxGeometry x="487" y="332.6" width="20" height="20" as="geometry" />
        </mxCell>
        <mxCell id="qJqK-in6u8nckECDjxhz-21" value="" style="ellipse;whiteSpace=wrap;html=1;align=center;aspect=fixed;fillColor=none;strokeColor=none;resizable=0;perimeter=centerPerimeter;rotatable=0;allowArrows=0;points=[];outlineConnect=1;" parent="1" vertex="1">
          <mxGeometry x="437" y="402.6" width="10" height="10" as="geometry" />
        </mxCell>
        <mxCell id="qJqK-in6u8nckECDjxhz-28" value="" style="rounded=0;orthogonalLoop=1;jettySize=auto;html=1;endArrow=halfCircle;endFill=0;endSize=6;strokeWidth=1;sketch=0;exitX=0.5;exitY=1;exitDx=0;exitDy=0;" parent="1" source="qJqK-in6u8nckECDjxhz-18" edge="1">
          <mxGeometry relative="1" as="geometry">
            <mxPoint x="587" y="312.6" as="sourcePoint" />
            <mxPoint x="497" y="402.6" as="targetPoint" />
          </mxGeometry>
        </mxCell>
        <mxCell id="qJqK-in6u8nckECDjxhz-31" value="" style="rounded=0;orthogonalLoop=1;jettySize=auto;html=1;endArrow=halfCircle;endFill=0;endSize=6;strokeWidth=1;sketch=0;exitX=0.5;exitY=1;exitDx=0;exitDy=0;" parent="1" source="qJqK-in6u8nckECDjxhz-18" edge="1">
          <mxGeometry relative="1" as="geometry">
            <mxPoint x="507" y="362.6" as="sourcePoint" />
            <mxPoint x="527" y="392.6" as="targetPoint" />
          </mxGeometry>
        </mxCell>
        <mxCell id="qJqK-in6u8nckECDjxhz-32" value="" style="rounded=0;orthogonalLoop=1;jettySize=auto;html=1;endArrow=halfCircle;endFill=0;endSize=6;strokeWidth=1;sketch=0;exitX=0.5;exitY=1;exitDx=0;exitDy=0;" parent="1" source="qJqK-in6u8nckECDjxhz-18" edge="1">
          <mxGeometry relative="1" as="geometry">
            <mxPoint x="507" y="362.6" as="sourcePoint" />
            <mxPoint x="467" y="392.6" as="targetPoint" />
          </mxGeometry>
        </mxCell>
        <mxCell id="qJqK-in6u8nckECDjxhz-34" value="" style="endArrow=none;html=1;rounded=0;entryX=0.5;entryY=1;entryDx=0;entryDy=0;" parent="1" target="qJqK-in6u8nckECDjxhz-18" edge="1">
          <mxGeometry width="50" height="50" relative="1" as="geometry">
            <mxPoint x="467" y="392.6" as="sourcePoint" />
            <mxPoint x="462" y="295.6" as="targetPoint" />
          </mxGeometry>
        </mxCell>
        <mxCell id="qJqK-in6u8nckECDjxhz-35" value="" style="endArrow=none;html=1;rounded=0;entryX=0.5;entryY=1;entryDx=0;entryDy=0;" parent="1" edge="1">
          <mxGeometry width="50" height="50" relative="1" as="geometry">
            <mxPoint x="437" y="432.6" as="sourcePoint" />
            <mxPoint x="467" y="392.6" as="targetPoint" />
          </mxGeometry>
        </mxCell>
        <mxCell id="qJqK-in6u8nckECDjxhz-36" value="" style="endArrow=none;html=1;rounded=0;entryX=0.5;entryY=1;entryDx=0;entryDy=0;" parent="1" target="qJqK-in6u8nckECDjxhz-18" edge="1">
          <mxGeometry width="50" height="50" relative="1" as="geometry">
            <mxPoint x="497" y="432.6" as="sourcePoint" />
            <mxPoint x="507" y="392.6" as="targetPoint" />
          </mxGeometry>
        </mxCell>
        <mxCell id="qJqK-in6u8nckECDjxhz-37" value="" style="endArrow=none;html=1;rounded=0;exitX=0.5;exitY=1;exitDx=0;exitDy=0;" parent="1" source="qJqK-in6u8nckECDjxhz-18" edge="1">
          <mxGeometry width="50" height="50" relative="1" as="geometry">
            <mxPoint x="547" y="422.6" as="sourcePoint" />
            <mxPoint x="527" y="392.6" as="targetPoint" />
          </mxGeometry>
        </mxCell>
        <mxCell id="qJqK-in6u8nckECDjxhz-38" value="" style="endArrow=none;html=1;rounded=0;exitX=0.5;exitY=1;exitDx=0;exitDy=0;" parent="1" edge="1">
          <mxGeometry width="50" height="50" relative="1" as="geometry">
            <mxPoint x="512" y="372.6" as="sourcePoint" />
            <mxPoint x="557" y="432.6" as="targetPoint" />
          </mxGeometry>
        </mxCell>
        <mxCell id="qJqK-in6u8nckECDjxhz-39" value="STATUE" style="rounded=0;whiteSpace=wrap;html=1;" parent="1" vertex="1">
          <mxGeometry x="350" y="432.6" width="90" height="30" as="geometry" />
        </mxCell>
        <mxCell id="qJqK-in6u8nckECDjxhz-40" value="SCULPTURE" style="rounded=0;whiteSpace=wrap;html=1;" parent="1" vertex="1">
          <mxGeometry x="452" y="432.6" width="90" height="30" as="geometry" />
        </mxCell>
        <mxCell id="qJqK-in6u8nckECDjxhz-41" value="PAINTING" style="rounded=0;whiteSpace=wrap;html=1;" parent="1" vertex="1">
          <mxGeometry x="557" y="432.6" width="90" height="30" as="geometry" />
        </mxCell>
        <mxCell id="qJqK-in6u8nckECDjxhz-43" value="" style="rounded=0;orthogonalLoop=1;jettySize=auto;html=1;endArrow=halfCircle;endFill=0;endSize=6;strokeWidth=1;sketch=0;exitX=0.5;exitY=1;exitDx=0;exitDy=0;" parent="1" source="qJqK-in6u8nckECDjxhz-18" edge="1">
          <mxGeometry relative="1" as="geometry">
            <mxPoint x="507" y="362.6" as="sourcePoint" />
            <mxPoint x="557" y="392.6" as="targetPoint" />
          </mxGeometry>
        </mxCell>
        <mxCell id="qJqK-in6u8nckECDjxhz-44" value="" style="endArrow=none;html=1;rounded=0;exitX=0.5;exitY=1;exitDx=0;exitDy=0;" parent="1" source="qJqK-in6u8nckECDjxhz-18" edge="1">
          <mxGeometry width="50" height="50" relative="1" as="geometry">
            <mxPoint x="522" y="382.6" as="sourcePoint" />
            <mxPoint x="587" y="412.6" as="targetPoint" />
          </mxGeometry>
        </mxCell>
        <mxCell id="qJqK-in6u8nckECDjxhz-45" value="OTHER" style="rounded=0;whiteSpace=wrap;html=1;" parent="1" vertex="1">
          <mxGeometry x="587" y="392.6" width="90" height="30" as="geometry" />
        </mxCell>
        <mxCell id="qJqK-in6u8nckECDjxhz-46" value="Color_Type" style="ellipse;whiteSpace=wrap;html=1;" parent="1" vertex="1">
          <mxGeometry x="677" y="462.6" width="75" height="20" as="geometry" />
        </mxCell>
        <mxCell id="qJqK-in6u8nckECDjxhz-47" value="" style="endArrow=none;html=1;rounded=0;exitX=0.5;exitY=0;exitDx=0;exitDy=0;entryX=1;entryY=0.5;entryDx=0;entryDy=0;" parent="1" source="qJqK-in6u8nckECDjxhz-46" target="qJqK-in6u8nckECDjxhz-41" edge="1">
          <mxGeometry width="50" height="50" relative="1" as="geometry">
            <mxPoint x="607" y="492.6" as="sourcePoint" />
            <mxPoint x="607.3900000000001" y="525.2" as="targetPoint" />
          </mxGeometry>
        </mxCell>
        <mxCell id="qJqK-in6u8nckECDjxhz-49" value="Material" style="ellipse;whiteSpace=wrap;html=1;" parent="1" vertex="1">
          <mxGeometry x="697" y="442.6" width="75" height="20" as="geometry" />
        </mxCell>
        <mxCell id="qJqK-in6u8nckECDjxhz-50" value="" style="endArrow=none;html=1;rounded=0;exitX=0.5;exitY=0;exitDx=0;exitDy=0;entryX=1;entryY=0;entryDx=0;entryDy=0;" parent="1" source="qJqK-in6u8nckECDjxhz-49" target="qJqK-in6u8nckECDjxhz-41" edge="1">
          <mxGeometry width="50" height="50" relative="1" as="geometry">
            <mxPoint x="652" y="492.6" as="sourcePoint" />
            <mxPoint x="647" y="462.6" as="targetPoint" />
          </mxGeometry>
        </mxCell>
        <mxCell id="qJqK-in6u8nckECDjxhz-51" value="Genre" style="ellipse;whiteSpace=wrap;html=1;" parent="1" vertex="1">
          <mxGeometry x="637" y="492.6" width="75" height="20" as="geometry" />
        </mxCell>
        <mxCell id="qJqK-in6u8nckECDjxhz-52" value="" style="endArrow=none;html=1;rounded=0;exitX=0.5;exitY=0;exitDx=0;exitDy=0;entryX=1;entryY=1;entryDx=0;entryDy=0;" parent="1" source="qJqK-in6u8nckECDjxhz-51" target="qJqK-in6u8nckECDjxhz-41" edge="1">
          <mxGeometry width="50" height="50" relative="1" as="geometry">
            <mxPoint x="507" y="502.6" as="sourcePoint" />
            <mxPoint x="502" y="472.6" as="targetPoint" />
          </mxGeometry>
        </mxCell>
        <mxCell id="qJqK-in6u8nckECDjxhz-53" value="Height" style="ellipse;whiteSpace=wrap;html=1;" parent="1" vertex="1">
          <mxGeometry x="507" y="502.6" width="75" height="20" as="geometry" />
        </mxCell>
        <mxCell id="qJqK-in6u8nckECDjxhz-54" value="" style="endArrow=none;html=1;rounded=0;exitX=0.5;exitY=0;exitDx=0;exitDy=0;entryX=0.75;entryY=1;entryDx=0;entryDy=0;" parent="1" source="qJqK-in6u8nckECDjxhz-53" target="qJqK-in6u8nckECDjxhz-40" edge="1">
          <mxGeometry width="50" height="50" relative="1" as="geometry">
            <mxPoint x="497" y="492.6" as="sourcePoint" />
            <mxPoint x="492" y="462.6" as="targetPoint" />
          </mxGeometry>
        </mxCell>
        <mxCell id="qJqK-in6u8nckECDjxhz-55" value="Material" style="ellipse;whiteSpace=wrap;html=1;" parent="1" vertex="1">
          <mxGeometry x="547" y="482.6" width="75" height="20" as="geometry" />
        </mxCell>
        <mxCell id="qJqK-in6u8nckECDjxhz-56" value="" style="endArrow=none;html=1;rounded=0;exitX=0.5;exitY=0;exitDx=0;exitDy=0;entryX=0.5;entryY=1;entryDx=0;entryDy=0;" parent="1" source="qJqK-in6u8nckECDjxhz-55" edge="1">
          <mxGeometry width="50" height="50" relative="1" as="geometry">
            <mxPoint x="542" y="492.6" as="sourcePoint" />
            <mxPoint x="537" y="462.6" as="targetPoint" />
          </mxGeometry>
        </mxCell>
        <mxCell id="qJqK-in6u8nckECDjxhz-57" value="Genre" style="ellipse;whiteSpace=wrap;html=1;" parent="1" vertex="1">
          <mxGeometry x="429.5" y="502.6" width="75" height="20" as="geometry" />
        </mxCell>
        <mxCell id="qJqK-in6u8nckECDjxhz-58" value="" style="endArrow=none;html=1;rounded=0;exitX=0.5;exitY=0;exitDx=0;exitDy=0;entryX=0.25;entryY=1;entryDx=0;entryDy=0;" parent="1" source="qJqK-in6u8nckECDjxhz-57" target="qJqK-in6u8nckECDjxhz-40" edge="1">
          <mxGeometry width="50" height="50" relative="1" as="geometry">
            <mxPoint x="397" y="502.6" as="sourcePoint" />
            <mxPoint x="447" y="462.6" as="targetPoint" />
          </mxGeometry>
        </mxCell>
        <mxCell id="qJqK-in6u8nckECDjxhz-59" value="Weight" style="ellipse;whiteSpace=wrap;html=1;" parent="1" vertex="1">
          <mxGeometry x="477" y="482.6" width="60" height="20" as="geometry" />
        </mxCell>
        <mxCell id="qJqK-in6u8nckECDjxhz-60" value="" style="endArrow=none;html=1;rounded=0;exitX=0.5;exitY=0;exitDx=0;exitDy=0;entryX=0.5;entryY=1;entryDx=0;entryDy=0;" parent="1" source="qJqK-in6u8nckECDjxhz-59" target="qJqK-in6u8nckECDjxhz-40" edge="1">
          <mxGeometry width="50" height="50" relative="1" as="geometry">
            <mxPoint x="457" y="472.6" as="sourcePoint" />
            <mxPoint x="480" y="442.6" as="targetPoint" />
          </mxGeometry>
        </mxCell>
        <mxCell id="qJqK-in6u8nckECDjxhz-61" value="Type" style="ellipse;whiteSpace=wrap;html=1;" parent="1" vertex="1">
          <mxGeometry x="702" y="392.6" width="75" height="20" as="geometry" />
        </mxCell>
        <mxCell id="qJqK-in6u8nckECDjxhz-62" value="" style="endArrow=none;html=1;rounded=0;exitX=0;exitY=0.5;exitDx=0;exitDy=0;entryX=1;entryY=0.5;entryDx=0;entryDy=0;" parent="1" source="qJqK-in6u8nckECDjxhz-61" target="qJqK-in6u8nckECDjxhz-45" edge="1">
          <mxGeometry width="50" height="50" relative="1" as="geometry">
            <mxPoint x="657" y="442.6" as="sourcePoint" />
            <mxPoint x="652" y="382.6" as="targetPoint" />
          </mxGeometry>
        </mxCell>
        <mxCell id="qJqK-in6u8nckECDjxhz-65" value="" style="endArrow=none;html=1;rounded=0;entryX=1;entryY=0.5;entryDx=0;entryDy=0;exitX=0;exitY=0.5;exitDx=0;exitDy=0;" parent="1" source="qJqK-in6u8nckECDjxhz-66" target="qJqK-in6u8nckECDjxhz-1" edge="1">
          <mxGeometry width="50" height="50" relative="1" as="geometry">
            <mxPoint x="659" y="255.6" as="sourcePoint" />
            <mxPoint x="582" y="260.6" as="targetPoint" />
          </mxGeometry>
        </mxCell>
        <mxCell id="qJqK-in6u8nckECDjxhz-66" value="d" style="ellipse;whiteSpace=wrap;html=1;" parent="1" vertex="1">
          <mxGeometry x="609" y="267.6" width="20" height="20" as="geometry" />
        </mxCell>
        <mxCell id="qJqK-in6u8nckECDjxhz-70" value="" style="endArrow=none;html=1;rounded=0;exitX=1;exitY=0.5;exitDx=0;exitDy=0;" parent="1" source="qJqK-in6u8nckECDjxhz-66" edge="1">
          <mxGeometry width="50" height="50" relative="1" as="geometry">
            <mxPoint x="652" y="342.6" as="sourcePoint" />
            <mxPoint x="729" y="277.6" as="targetPoint" />
          </mxGeometry>
        </mxCell>
        <mxCell id="qJqK-in6u8nckECDjxhz-72" value="" style="rounded=0;orthogonalLoop=1;jettySize=auto;html=1;endArrow=halfCircle;endFill=0;endSize=6;strokeWidth=1;sketch=0;exitX=1;exitY=0.5;exitDx=0;exitDy=0;" parent="1" source="qJqK-in6u8nckECDjxhz-66" edge="1">
          <mxGeometry relative="1" as="geometry">
            <mxPoint x="702" y="247.6" as="sourcePoint" />
            <mxPoint x="659" y="277.6" as="targetPoint" />
          </mxGeometry>
        </mxCell>
        <mxCell id="qJqK-in6u8nckECDjxhz-73" value="" style="rounded=0;orthogonalLoop=1;jettySize=auto;html=1;endArrow=halfCircle;endFill=0;endSize=6;strokeWidth=1;sketch=0;exitX=1;exitY=0.5;exitDx=0;exitDy=0;" parent="1" edge="1">
          <mxGeometry relative="1" as="geometry">
            <mxPoint x="622" y="267.6" as="sourcePoint" />
            <mxPoint x="642" y="232.6" as="targetPoint" />
          </mxGeometry>
        </mxCell>
        <mxCell id="qJqK-in6u8nckECDjxhz-74" value="" style="endArrow=none;html=1;rounded=0;exitX=1;exitY=0.5;exitDx=0;exitDy=0;" parent="1" edge="1">
          <mxGeometry width="50" height="50" relative="1" as="geometry">
            <mxPoint x="622" y="267.6" as="sourcePoint" />
            <mxPoint x="659" y="202.6" as="targetPoint" />
          </mxGeometry>
        </mxCell>
        <mxCell id="qJqK-in6u8nckECDjxhz-75" value="PERMANENT" style="rounded=0;whiteSpace=wrap;html=1;" parent="1" vertex="1">
          <mxGeometry x="622" y="172.6" width="90" height="30" as="geometry" />
        </mxCell>
        <mxCell id="qJqK-in6u8nckECDjxhz-76" value="BORROWED" style="rounded=0;whiteSpace=wrap;html=1;" parent="1" vertex="1">
          <mxGeometry x="702" y="262.6" width="90" height="30" as="geometry" />
        </mxCell>
        <mxCell id="qJqK-in6u8nckECDjxhz-79" value="Price" style="ellipse;whiteSpace=wrap;html=1;" parent="1" vertex="1">
          <mxGeometry x="542" y="132.6" width="30" height="20" as="geometry" />
        </mxCell>
        <mxCell id="qJqK-in6u8nckECDjxhz-80" value="" style="endArrow=none;html=1;rounded=0;exitX=1;exitY=0.5;exitDx=0;exitDy=0;entryX=0;entryY=0;entryDx=0;entryDy=0;" parent="1" source="qJqK-in6u8nckECDjxhz-79" edge="1">
          <mxGeometry width="50" height="50" relative="1" as="geometry">
            <mxPoint x="597" y="212" as="sourcePoint" />
            <mxPoint x="622" y="172" as="targetPoint" />
          </mxGeometry>
        </mxCell>
        <mxCell id="qJqK-in6u8nckECDjxhz-81" value="State" style="ellipse;whiteSpace=wrap;html=1;" parent="1" vertex="1">
          <mxGeometry x="577" y="122" width="30" height="20" as="geometry" />
        </mxCell>
        <mxCell id="qJqK-in6u8nckECDjxhz-82" value="" style="endArrow=none;html=1;rounded=0;exitX=1;exitY=1;exitDx=0;exitDy=0;entryX=0;entryY=0;entryDx=0;entryDy=0;" parent="1" source="qJqK-in6u8nckECDjxhz-81" edge="1">
          <mxGeometry width="50" height="50" relative="1" as="geometry">
            <mxPoint x="635" y="202" as="sourcePoint" />
            <mxPoint x="622" y="172" as="targetPoint" />
          </mxGeometry>
        </mxCell>
        <mxCell id="qJqK-in6u8nckECDjxhz-83" value="Date" style="ellipse;whiteSpace=wrap;html=1;" parent="1" vertex="1">
          <mxGeometry x="617" y="120" width="40" height="20" as="geometry" />
        </mxCell>
        <mxCell id="qJqK-in6u8nckECDjxhz-84" value="" style="endArrow=none;html=1;rounded=0;exitX=0.5;exitY=1;exitDx=0;exitDy=0;entryX=0.171;entryY=-0.08;entryDx=0;entryDy=0;entryPerimeter=0;" parent="1" edge="1">
          <mxGeometry width="50" height="50" relative="1" as="geometry">
            <mxPoint x="637" y="140" as="sourcePoint" />
            <mxPoint x="637.3900000000001" y="172.60000000000002" as="targetPoint" />
          </mxGeometry>
        </mxCell>
        <mxCell id="qJqK-in6u8nckECDjxhz-85" value="Return_Date" style="ellipse;whiteSpace=wrap;html=1;" parent="1" vertex="1">
          <mxGeometry x="634" y="242.6" width="75" height="20" as="geometry" />
        </mxCell>
        <mxCell id="qJqK-in6u8nckECDjxhz-86" value="" style="endArrow=none;html=1;rounded=0;exitX=1;exitY=0.5;exitDx=0;exitDy=0;entryX=0;entryY=0;entryDx=0;entryDy=0;" parent="1" source="qJqK-in6u8nckECDjxhz-85" edge="1">
          <mxGeometry width="50" height="50" relative="1" as="geometry">
            <mxPoint x="709.5" y="302" as="sourcePoint" />
            <mxPoint x="734.5" y="262" as="targetPoint" />
          </mxGeometry>
        </mxCell>
        <mxCell id="qJqK-in6u8nckECDjxhz-87" value="Borrow_Date" style="ellipse;whiteSpace=wrap;html=1;" parent="1" vertex="1">
          <mxGeometry x="669" y="209.4" width="80" height="20" as="geometry" />
        </mxCell>
        <mxCell id="qJqK-in6u8nckECDjxhz-88" value="" style="endArrow=none;html=1;rounded=0;exitX=0.5;exitY=1;exitDx=0;exitDy=0;entryX=0;entryY=0;entryDx=0;entryDy=0;" parent="1" source="qJqK-in6u8nckECDjxhz-87" edge="1">
          <mxGeometry width="50" height="50" relative="1" as="geometry">
            <mxPoint x="747.5" y="292" as="sourcePoint" />
            <mxPoint x="734.5" y="262" as="targetPoint" />
          </mxGeometry>
        </mxCell>
        <mxCell id="qJqK-in6u8nckECDjxhz-89" value="Collection" style="ellipse;whiteSpace=wrap;html=1;" parent="1" vertex="1">
          <mxGeometry x="749" y="209.4" width="59.5" height="22.6" as="geometry" />
        </mxCell>
        <mxCell id="qJqK-in6u8nckECDjxhz-90" value="" style="endArrow=none;html=1;rounded=0;exitX=0.5;exitY=1;exitDx=0;exitDy=0;entryX=0.171;entryY=-0.08;entryDx=0;entryDy=0;entryPerimeter=0;" parent="1" source="qJqK-in6u8nckECDjxhz-89" edge="1">
          <mxGeometry width="50" height="50" relative="1" as="geometry">
            <mxPoint x="749.5" y="230" as="sourcePoint" />
            <mxPoint x="749.8900000000001" y="262.6" as="targetPoint" />
          </mxGeometry>
        </mxCell>
        <mxCell id="qJqK-in6u8nckECDjxhz-91" value="" style="endArrow=none;html=1;rounded=0;entryX=0;entryY=0.5;entryDx=0;entryDy=0;" parent="1" target="qJqK-in6u8nckECDjxhz-1" edge="1">
          <mxGeometry width="50" height="50" relative="1" as="geometry">
            <mxPoint x="400" y="278" as="sourcePoint" />
            <mxPoint x="400" y="277.24" as="targetPoint" />
          </mxGeometry>
        </mxCell>
        <mxCell id="qJqK-in6u8nckECDjxhz-92" value="CREATED IN" style="rhombus;whiteSpace=wrap;html=1;" parent="1" vertex="1">
          <mxGeometry x="310" y="257.6" width="90" height="40" as="geometry" />
        </mxCell>
        <mxCell id="qJqK-in6u8nckECDjxhz-93" value="" style="endArrow=none;html=1;rounded=0;entryX=0;entryY=0.5;entryDx=0;entryDy=0;" parent="1" edge="1">
          <mxGeometry width="50" height="50" relative="1" as="geometry">
            <mxPoint x="258" y="277.24" as="sourcePoint" />
            <mxPoint x="310" y="277.24" as="targetPoint" />
          </mxGeometry>
        </mxCell>
        <mxCell id="qJqK-in6u8nckECDjxhz-94" value="COUNTRY/ERA" style="rounded=0;whiteSpace=wrap;html=1;" parent="1" vertex="1">
          <mxGeometry x="170" y="262.6" width="90" height="30" as="geometry" />
        </mxCell>
        <mxCell id="qJqK-in6u8nckECDjxhz-95" value="1" style="text;html=1;align=center;verticalAlign=middle;resizable=0;points=[];autosize=1;strokeColor=none;fillColor=none;" parent="1" vertex="1">
          <mxGeometry x="252" y="254.00000000000003" width="30" height="30" as="geometry" />
        </mxCell>
        <mxCell id="qJqK-in6u8nckECDjxhz-96" value="N" style="text;html=1;align=center;verticalAlign=middle;resizable=0;points=[];autosize=1;strokeColor=none;fillColor=none;" parent="1" vertex="1">
          <mxGeometry x="399.5" y="254.00000000000003" width="30" height="30" as="geometry" />
        </mxCell>
        <mxCell id="qJqK-in6u8nckECDjxhz-100" value="COUNTRY" style="ellipse;whiteSpace=wrap;html=1;" parent="1" vertex="1">
          <mxGeometry x="35" y="182" width="65" height="20" as="geometry" />
        </mxCell>
        <mxCell id="qJqK-in6u8nckECDjxhz-101" value="" style="endArrow=none;html=1;rounded=0;exitX=0.5;exitY=1;exitDx=0;exitDy=0;entryX=0;entryY=0;entryDx=0;entryDy=0;" parent="1" source="qJqK-in6u8nckECDjxhz-100" edge="1">
          <mxGeometry width="50" height="50" relative="1" as="geometry">
            <mxPoint x="93" y="262" as="sourcePoint" />
            <mxPoint x="80" y="232.39999999999998" as="targetPoint" />
          </mxGeometry>
        </mxCell>
        <mxCell id="qJqK-in6u8nckECDjxhz-102" value="ERA" style="ellipse;whiteSpace=wrap;html=1;" parent="1" vertex="1">
          <mxGeometry x="105" y="178.79999999999998" width="65" height="20.3" as="geometry" />
        </mxCell>
        <mxCell id="qJqK-in6u8nckECDjxhz-103" value="" style="endArrow=none;html=1;rounded=0;exitX=0.5;exitY=1;exitDx=0;exitDy=0;entryX=0.171;entryY=-0.08;entryDx=0;entryDy=0;entryPerimeter=0;" parent="1" source="qJqK-in6u8nckECDjxhz-102" edge="1">
          <mxGeometry width="50" height="50" relative="1" as="geometry">
            <mxPoint x="95" y="199.99999999999997" as="sourcePoint" />
            <mxPoint x="95.3900000000001" y="232.60000000000002" as="targetPoint" />
          </mxGeometry>
        </mxCell>
        <mxCell id="qJqK-in6u8nckECDjxhz-104" value="ARTIST" style="rounded=0;whiteSpace=wrap;html=1;" parent="1" vertex="1">
          <mxGeometry x="142" y="382.6" width="90" height="30" as="geometry" />
        </mxCell>
        <mxCell id="qJqK-in6u8nckECDjxhz-105" value="Birth_Date" style="ellipse;whiteSpace=wrap;html=1;" parent="1" vertex="1">
          <mxGeometry x="60" y="362.6" width="70" height="22.4" as="geometry" />
        </mxCell>
        <mxCell id="qJqK-in6u8nckECDjxhz-106" value="" style="endArrow=none;html=1;rounded=0;exitX=1;exitY=0.5;exitDx=0;exitDy=0;" parent="1" source="qJqK-in6u8nckECDjxhz-105" edge="1">
          <mxGeometry width="50" height="50" relative="1" as="geometry">
            <mxPoint x="120" y="422.20000000000005" as="sourcePoint" />
            <mxPoint x="142" y="383" as="targetPoint" />
          </mxGeometry>
        </mxCell>
        <mxCell id="qJqK-in6u8nckECDjxhz-107" value="&lt;u&gt;Name&lt;/u&gt;" style="ellipse;whiteSpace=wrap;html=1;" parent="1" vertex="1">
          <mxGeometry x="130" y="352.6" width="40" height="20" as="geometry" />
        </mxCell>
        <mxCell id="qJqK-in6u8nckECDjxhz-108" value="" style="endArrow=none;html=1;rounded=0;exitX=0.5;exitY=1;exitDx=0;exitDy=0;entryX=0;entryY=0;entryDx=0;entryDy=0;" parent="1" edge="1">
          <mxGeometry width="50" height="50" relative="1" as="geometry">
            <mxPoint x="150.0000000000001" y="372.6" as="sourcePoint" />
            <mxPoint x="145" y="382.6" as="targetPoint" />
          </mxGeometry>
        </mxCell>
        <mxCell id="qJqK-in6u8nckECDjxhz-109" value="Death_Date" style="ellipse;whiteSpace=wrap;html=1;" parent="1" vertex="1">
          <mxGeometry x="60" y="385" width="68" height="22.4" as="geometry" />
        </mxCell>
        <mxCell id="qJqK-in6u8nckECDjxhz-110" value="" style="endArrow=none;html=1;rounded=0;exitX=1;exitY=0.5;exitDx=0;exitDy=0;entryX=0;entryY=0.5;entryDx=0;entryDy=0;" parent="1" source="qJqK-in6u8nckECDjxhz-109" target="qJqK-in6u8nckECDjxhz-104" edge="1">
          <mxGeometry width="50" height="50" relative="1" as="geometry">
            <mxPoint x="118" y="444.6" as="sourcePoint" />
            <mxPoint x="140" y="405.4" as="targetPoint" />
          </mxGeometry>
        </mxCell>
        <mxCell id="qJqK-in6u8nckECDjxhz-111" value="HAS" style="rhombus;whiteSpace=wrap;html=1;" parent="1" vertex="1">
          <mxGeometry x="182.5" y="322.6" width="90" height="40" as="geometry" />
        </mxCell>
        <mxCell id="qJqK-in6u8nckECDjxhz-112" value="" style="endArrow=none;html=1;rounded=0;entryX=0.5;entryY=1;entryDx=0;entryDy=0;" parent="1" target="qJqK-in6u8nckECDjxhz-94" edge="1">
          <mxGeometry width="50" height="50" relative="1" as="geometry">
            <mxPoint x="228" y="323" as="sourcePoint" />
            <mxPoint x="320" y="287.24" as="targetPoint" />
          </mxGeometry>
        </mxCell>
        <mxCell id="qJqK-in6u8nckECDjxhz-114" value="" style="endArrow=none;html=1;rounded=0;entryX=0.5;entryY=1;entryDx=0;entryDy=0;exitX=1;exitY=0;exitDx=0;exitDy=0;" parent="1" source="qJqK-in6u8nckECDjxhz-104" target="qJqK-in6u8nckECDjxhz-111" edge="1">
          <mxGeometry width="50" height="50" relative="1" as="geometry">
            <mxPoint x="238" y="333" as="sourcePoint" />
            <mxPoint x="225" y="303" as="targetPoint" />
          </mxGeometry>
        </mxCell>
        <mxCell id="qJqK-in6u8nckECDjxhz-115" value="N" style="text;html=1;align=center;verticalAlign=middle;resizable=0;points=[];autosize=1;strokeColor=none;fillColor=none;" parent="1" vertex="1">
          <mxGeometry x="202" y="358.8" width="30" height="30" as="geometry" />
        </mxCell>
        <mxCell id="qJqK-in6u8nckECDjxhz-116" value="1" style="text;html=1;align=center;verticalAlign=middle;resizable=0;points=[];autosize=1;strokeColor=none;fillColor=none;" parent="1" vertex="1">
          <mxGeometry x="195" y="284" width="30" height="30" as="geometry" />
        </mxCell>
        <mxCell id="qJqK-in6u8nckECDjxhz-117" value="&lt;u&gt;COUNTRY_ERA&lt;/u&gt;" style="ellipse;shape=doubleEllipse;margin=3;whiteSpace=wrap;html=1;align=center;" parent="1" vertex="1">
          <mxGeometry x="35" y="232.6" width="100" height="32.6" as="geometry" />
        </mxCell>
        <mxCell id="qJqK-in6u8nckECDjxhz-118" value="" style="endArrow=none;html=1;rounded=0;entryX=0;entryY=0.5;entryDx=0;entryDy=0;exitX=1;exitY=0.5;exitDx=0;exitDy=0;" parent="1" source="qJqK-in6u8nckECDjxhz-117" target="qJqK-in6u8nckECDjxhz-94" edge="1">
          <mxGeometry width="50" height="50" relative="1" as="geometry">
            <mxPoint x="238" y="333" as="sourcePoint" />
            <mxPoint x="225" y="303" as="targetPoint" />
          </mxGeometry>
        </mxCell>
        <mxCell id="qJqK-in6u8nckECDjxhz-119" value="EXHIBITION" style="rounded=0;whiteSpace=wrap;html=1;" parent="1" vertex="1">
          <mxGeometry x="300" y="352.6" width="90" height="30" as="geometry" />
        </mxCell>
        <mxCell id="qJqK-in6u8nckECDjxhz-120" value="SHOWS" style="rhombus;whiteSpace=wrap;html=1;" parent="1" vertex="1">
          <mxGeometry x="357" y="297.6" width="90" height="40" as="geometry" />
        </mxCell>
        <mxCell id="qJqK-in6u8nckECDjxhz-121" value="" style="endArrow=none;html=1;rounded=0;entryX=1;entryY=0;entryDx=0;entryDy=0;exitX=0.5;exitY=1;exitDx=0;exitDy=0;" parent="1" source="qJqK-in6u8nckECDjxhz-120" target="qJqK-in6u8nckECDjxhz-119" edge="1">
          <mxGeometry width="50" height="50" relative="1" as="geometry">
            <mxPoint x="268" y="287.24" as="sourcePoint" />
            <mxPoint x="320" y="287.24" as="targetPoint" />
          </mxGeometry>
        </mxCell>
        <mxCell id="qJqK-in6u8nckECDjxhz-122" value="" style="endArrow=none;html=1;rounded=0;entryX=0.5;entryY=0;entryDx=0;entryDy=0;exitX=0;exitY=1;exitDx=0;exitDy=0;" parent="1" source="qJqK-in6u8nckECDjxhz-1" target="qJqK-in6u8nckECDjxhz-120" edge="1">
          <mxGeometry width="50" height="50" relative="1" as="geometry">
            <mxPoint x="412" y="348" as="sourcePoint" />
            <mxPoint x="400" y="363" as="targetPoint" />
          </mxGeometry>
        </mxCell>
        <mxCell id="qJqK-in6u8nckECDjxhz-123" value="1" style="text;html=1;align=center;verticalAlign=middle;resizable=0;points=[];autosize=1;strokeColor=none;fillColor=none;" parent="1" vertex="1">
          <mxGeometry x="374" y="331.6" width="30" height="30" as="geometry" />
        </mxCell>
        <mxCell id="qJqK-in6u8nckECDjxhz-124" value="N" style="text;html=1;align=center;verticalAlign=middle;resizable=0;points=[];autosize=1;strokeColor=none;fillColor=none;" parent="1" vertex="1">
          <mxGeometry x="423" y="272" width="30" height="30" as="geometry" />
        </mxCell>
        <mxCell id="qJqK-in6u8nckECDjxhz-125" value="Start_Date" style="ellipse;whiteSpace=wrap;html=1;" parent="1" vertex="1">
          <mxGeometry x="252" y="390.20000000000005" width="70" height="22.4" as="geometry" />
        </mxCell>
        <mxCell id="qJqK-in6u8nckECDjxhz-126" value="" style="endArrow=none;html=1;rounded=0;exitX=1;exitY=0.5;exitDx=0;exitDy=0;entryX=0.5;entryY=1;entryDx=0;entryDy=0;" parent="1" source="qJqK-in6u8nckECDjxhz-125" target="qJqK-in6u8nckECDjxhz-119" edge="1">
          <mxGeometry width="50" height="50" relative="1" as="geometry">
            <mxPoint x="320" y="462.20000000000005" as="sourcePoint" />
            <mxPoint x="342" y="423" as="targetPoint" />
          </mxGeometry>
        </mxCell>
        <mxCell id="qJqK-in6u8nckECDjxhz-127" value="&lt;u&gt;Name&lt;/u&gt;" style="ellipse;whiteSpace=wrap;html=1;" parent="1" vertex="1">
          <mxGeometry x="330" y="392.6" width="40" height="20" as="geometry" />
        </mxCell>
        <mxCell id="qJqK-in6u8nckECDjxhz-128" value="" style="endArrow=none;html=1;rounded=0;exitX=0.5;exitY=1;exitDx=0;exitDy=0;entryX=0.5;entryY=0;entryDx=0;entryDy=0;" parent="1" source="qJqK-in6u8nckECDjxhz-119" target="qJqK-in6u8nckECDjxhz-127" edge="1">
          <mxGeometry width="50" height="50" relative="1" as="geometry">
            <mxPoint x="350.0000000000001" y="412.6" as="sourcePoint" />
            <mxPoint x="345" y="422.6" as="targetPoint" />
          </mxGeometry>
        </mxCell>
        <mxCell id="qJqK-in6u8nckECDjxhz-129" value="End_Date" style="ellipse;whiteSpace=wrap;html=1;" parent="1" vertex="1">
          <mxGeometry x="232" y="360.2" width="58" height="22.4" as="geometry" />
        </mxCell>
        <mxCell id="qJqK-in6u8nckECDjxhz-130" value="" style="endArrow=none;html=1;rounded=0;exitX=1;exitY=0.5;exitDx=0;exitDy=0;entryX=0;entryY=0.25;entryDx=0;entryDy=0;" parent="1" source="qJqK-in6u8nckECDjxhz-129" target="qJqK-in6u8nckECDjxhz-119" edge="1">
          <mxGeometry width="50" height="50" relative="1" as="geometry">
            <mxPoint x="318" y="484.6" as="sourcePoint" />
            <mxPoint x="342" y="438" as="targetPoint" />
          </mxGeometry>
        </mxCell>
        <mxCell id="qJqK-in6u8nckECDjxhz-134" value="Collection" style="rounded=0;whiteSpace=wrap;html=1;" parent="1" vertex="1">
          <mxGeometry x="637" y="331.6" width="90" height="30" as="geometry" />
        </mxCell>
        <mxCell id="qJqK-in6u8nckECDjxhz-135" value="CONTAINS" style="rhombus;whiteSpace=wrap;html=1;" parent="1" vertex="1">
          <mxGeometry x="527" y="302" width="90" height="40" as="geometry" />
        </mxCell>
        <mxCell id="qJqK-in6u8nckECDjxhz-136" value="" style="endArrow=none;html=1;rounded=0;entryX=0.5;entryY=0;entryDx=0;entryDy=0;exitX=1;exitY=1;exitDx=0;exitDy=0;" parent="1" source="qJqK-in6u8nckECDjxhz-1" target="qJqK-in6u8nckECDjxhz-135" edge="1">
          <mxGeometry width="50" height="50" relative="1" as="geometry">
            <mxPoint x="462" y="303" as="sourcePoint" />
            <mxPoint x="412" y="308" as="targetPoint" />
          </mxGeometry>
        </mxCell>
        <mxCell id="qJqK-in6u8nckECDjxhz-137" value="" style="endArrow=none;html=1;rounded=0;entryX=0;entryY=0.5;entryDx=0;entryDy=0;exitX=0.5;exitY=1;exitDx=0;exitDy=0;" parent="1" source="qJqK-in6u8nckECDjxhz-135" target="qJqK-in6u8nckECDjxhz-134" edge="1">
          <mxGeometry width="50" height="50" relative="1" as="geometry">
            <mxPoint x="552" y="303" as="sourcePoint" />
            <mxPoint x="582" y="312" as="targetPoint" />
          </mxGeometry>
        </mxCell>
        <mxCell id="qJqK-in6u8nckECDjxhz-139" value="1" style="text;html=1;align=center;verticalAlign=middle;resizable=0;points=[];autosize=1;strokeColor=none;fillColor=none;" parent="1" vertex="1">
          <mxGeometry x="609" y="322.6" width="30" height="30" as="geometry" />
        </mxCell>
        <mxCell id="qJqK-in6u8nckECDjxhz-140" value="N" style="text;html=1;align=center;verticalAlign=middle;resizable=0;points=[];autosize=1;strokeColor=none;fillColor=none;" parent="1" vertex="1">
          <mxGeometry x="540" y="277" width="30" height="30" as="geometry" />
        </mxCell>
        <mxCell id="qJqK-in6u8nckECDjxhz-142" value="&lt;u&gt;Name&lt;/u&gt;" style="ellipse;whiteSpace=wrap;html=1;" parent="1" vertex="1">
          <mxGeometry x="770" y="311.6" width="54" height="20" as="geometry" />
        </mxCell>
        <mxCell id="qJqK-in6u8nckECDjxhz-143" value="" style="endArrow=none;html=1;rounded=0;entryX=0;entryY=0.5;entryDx=0;entryDy=0;exitX=1;exitY=0;exitDx=0;exitDy=0;" parent="1" source="qJqK-in6u8nckECDjxhz-134" target="qJqK-in6u8nckECDjxhz-142" edge="1">
          <mxGeometry width="50" height="50" relative="1" as="geometry">
            <mxPoint x="582" y="352" as="sourcePoint" />
            <mxPoint x="647" y="357" as="targetPoint" />
          </mxGeometry>
        </mxCell>
        <mxCell id="qJqK-in6u8nckECDjxhz-144" value="Type" style="ellipse;whiteSpace=wrap;html=1;" parent="1" vertex="1">
          <mxGeometry x="772" y="331.6" width="54" height="20" as="geometry" />
        </mxCell>
        <mxCell id="qJqK-in6u8nckECDjxhz-146" value="Desc" style="ellipse;whiteSpace=wrap;html=1;" parent="1" vertex="1">
          <mxGeometry x="772" y="351.6" width="54" height="20" as="geometry" />
        </mxCell>
        <mxCell id="qJqK-in6u8nckECDjxhz-147" value="" style="endArrow=none;html=1;rounded=0;entryX=0;entryY=0.5;entryDx=0;entryDy=0;exitX=1;exitY=0.25;exitDx=0;exitDy=0;" parent="1" target="qJqK-in6u8nckECDjxhz-146" edge="1">
          <mxGeometry width="50" height="50" relative="1" as="geometry">
            <mxPoint x="727" y="359" as="sourcePoint" />
            <mxPoint x="780" y="352" as="targetPoint" />
          </mxGeometry>
        </mxCell>
        <mxCell id="qJqK-in6u8nckECDjxhz-150" value="Address" style="ellipse;whiteSpace=wrap;html=1;" parent="1" vertex="1">
          <mxGeometry x="777" y="372.6" width="54" height="20" as="geometry" />
        </mxCell>
        <mxCell id="qJqK-in6u8nckECDjxhz-151" value="" style="endArrow=none;html=1;rounded=0;entryX=0;entryY=0.5;entryDx=0;entryDy=0;exitX=1;exitY=1;exitDx=0;exitDy=0;" parent="1" source="qJqK-in6u8nckECDjxhz-134" target="qJqK-in6u8nckECDjxhz-150" edge="1">
          <mxGeometry width="50" height="50" relative="1" as="geometry">
            <mxPoint x="737" y="369" as="sourcePoint" />
            <mxPoint x="790" y="362" as="targetPoint" />
          </mxGeometry>
        </mxCell>
        <mxCell id="qJqK-in6u8nckECDjxhz-154" value="Phone_Number" style="ellipse;whiteSpace=wrap;html=1;" parent="1" vertex="1">
          <mxGeometry x="677" y="296.4" width="90" height="17.6" as="geometry" />
        </mxCell>
        <mxCell id="qJqK-in6u8nckECDjxhz-155" value="" style="endArrow=none;html=1;rounded=0;entryX=0.5;entryY=1;entryDx=0;entryDy=0;exitX=1;exitY=0;exitDx=0;exitDy=0;" parent="1" source="qJqK-in6u8nckECDjxhz-134" target="qJqK-in6u8nckECDjxhz-154" edge="1">
          <mxGeometry width="50" height="50" relative="1" as="geometry">
            <mxPoint x="737" y="342" as="sourcePoint" />
            <mxPoint x="780" y="332" as="targetPoint" />
          </mxGeometry>
        </mxCell>
        <mxCell id="qJqK-in6u8nckECDjxhz-156" value="Audience" style="ellipse;whiteSpace=wrap;html=1;" parent="1" vertex="1">
          <mxGeometry x="611" y="302" width="58" height="17.6" as="geometry" />
        </mxCell>
        <mxCell id="qJqK-in6u8nckECDjxhz-157" value="" style="endArrow=none;html=1;rounded=0;entryX=0.5;entryY=1;entryDx=0;entryDy=0;exitX=0.5;exitY=0;exitDx=0;exitDy=0;" parent="1" source="qJqK-in6u8nckECDjxhz-134" target="qJqK-in6u8nckECDjxhz-156" edge="1">
          <mxGeometry width="50" height="50" relative="1" as="geometry">
            <mxPoint x="737" y="342" as="sourcePoint" />
            <mxPoint x="790" y="342" as="targetPoint" />
          </mxGeometry>
        </mxCell>
        <mxCell id="qJqK-in6u8nckECDjxhz-158" value="&lt;h3&gt;&lt;br&gt;&lt;/h3&gt;" style="text;html=1;align=center;verticalAlign=middle;resizable=0;points=[];autosize=1;strokeColor=none;fillColor=none;" parent="1" vertex="1">
          <mxGeometry x="572" y="550" width="20" height="60" as="geometry" />
        </mxCell>
        <mxCell id="oWTkjT9gjw_XTJtRqvhN-1" value="Painted" style="rhombus;whiteSpace=wrap;html=1;" vertex="1" parent="1">
          <mxGeometry x="195" y="442.6" width="90" height="40" as="geometry" />
        </mxCell>
        <mxCell id="oWTkjT9gjw_XTJtRqvhN-3" value="" style="endArrow=none;html=1;rounded=0;entryX=0.5;entryY=1;entryDx=0;entryDy=0;exitX=0.5;exitY=0;exitDx=0;exitDy=0;" edge="1" parent="1" source="oWTkjT9gjw_XTJtRqvhN-1" target="qJqK-in6u8nckECDjxhz-104">
          <mxGeometry width="50" height="50" relative="1" as="geometry">
            <mxPoint x="190" y="440" as="sourcePoint" />
            <mxPoint x="225" y="303" as="targetPoint" />
          </mxGeometry>
        </mxCell>
        <mxCell id="oWTkjT9gjw_XTJtRqvhN-4" value="1" style="text;html=1;align=center;verticalAlign=middle;resizable=0;points=[];autosize=1;strokeColor=none;fillColor=none;" vertex="1" parent="1">
          <mxGeometry x="172" y="407.4" width="30" height="30" as="geometry" />
        </mxCell>
        <mxCell id="oWTkjT9gjw_XTJtRqvhN-5" value="" style="endArrow=none;html=1;rounded=0;entryX=1;entryY=0.5;entryDx=0;entryDy=0;exitX=0.5;exitY=1;exitDx=0;exitDy=0;" edge="1" parent="1" source="qJqK-in6u8nckECDjxhz-1" target="oWTkjT9gjw_XTJtRqvhN-1">
          <mxGeometry width="50" height="50" relative="1" as="geometry">
            <mxPoint x="420" y="400" as="sourcePoint" />
            <mxPoint x="197" y="423" as="targetPoint" />
            <Array as="points">
              <mxPoint x="400" y="400" />
            </Array>
          </mxGeometry>
        </mxCell>
        <mxCell id="oWTkjT9gjw_XTJtRqvhN-6" value="N" style="text;html=1;align=center;verticalAlign=middle;resizable=0;points=[];autosize=1;strokeColor=none;fillColor=none;" vertex="1" parent="1">
          <mxGeometry x="457" y="290.20000000000005" width="30" height="30" as="geometry" />
        </mxCell>
      </root>
    </mxGraphModel>
  </diagram>
</mxfile>
